<svg xmlns="http://www.w3.org/2000/svg" viewBox="0 0 1600 1000">
  <defs>
    <radialGradient id="violet" cx="64%" cy="38%" r="45%">
      <stop offset="0%" stop-color="#7c3aed" stop-opacity=".62"/>
      <stop offset="100%" stop-color="#050814" stop-opacity="0"/>
    </radialGradient>
    <linearGradient id="screen" x1="0" x2="1">
      <stop offset="0%" stop-color="#0f172a"/>
      <stop offset="100%" stop-color="#111827"/>
    </linearGradient>
    <filter id="glow">
      <feGaussianBlur stdDeviation="8" result="blur"/>
      <feMerge>
        <feMergeNode in="blur"/>
        <feMergeNode in="SourceGraphic"/>
      </feMerge>
    </filter>
  </defs>
  <rect width="1600" height="1000" fill="#050814"/>
  <rect width="1600" height="1000" fill="url(#violet)"/>
  <g opacity=".22" stroke="#60a5fa">
    <path d="M780 210c210-95 420-70 530 70" fill="none" stroke-dasharray="5 12"/>
    <path d="M740 320c260-170 490-145 665 20" fill="none" stroke-dasharray="6 14"/>
    <path d="M820 180c55 170 220 250 470 230" fill="none" stroke-dasharray="7 14"/>
  </g>
  <g transform="translate(690 255)">
    <rect width="430" height="270" rx="18" fill="url(#screen)" stroke="#334155"/>
    <rect x="22" y="28" width="386" height="206" rx="8" fill="#020617"/>
    <g filter="url(#glow)">
      <rect x="45" y="55" width="180" height="7" rx="3" fill="#8b5cf6"/>
      <rect x="45" y="80" width="240" height="7" rx="3" fill="#38bdf8"/>
      <rect x="45" y="105" width="150" height="7" rx="3" fill="#64748b"/>
      <rect x="45" y="130" width="290" height="7" rx="3" fill="#8b5cf6"/>
      <rect x="45" y="155" width="220" height="7" rx="3" fill="#38bdf8"/>
      <rect x="45" y="180" width="260" height="7" rx="3" fill="#64748b"/>
    </g>
    <rect x="172" y="270" width="86" height="42" fill="#0f172a"/>
    <rect x="120" y="312" width="190" height="14" rx="7" fill="#1e293b"/>
  </g>
  <g transform="translate(845 512)">
    <rect width="330" height="190" rx="14" fill="#0f172a" stroke="#475569"/>
    <rect x="22" y="26" width="286" height="130" rx="8" fill="#020617"/>
    <rect x="44" y="52" width="170" height="7" rx="3" fill="#a78bfa"/>
    <rect x="44" y="79" width="230" height="7" rx="3" fill="#60a5fa"/>
    <rect x="44" y="106" width="130" height="7" rx="3" fill="#64748b"/>
  </g>
  <g transform="translate(1090 390)">
    <circle cx="90" cy="120" r="86" fill="#111827"/>
    <path d="M52 205c10-74 86-74 104 0l45 210H0z" fill="#0f172a"/>
    <path d="M122 80c35 18 48 63 30 100-42-13-75-38-98-77 16-26 39-34 68-23z" fill="#1f2937"/>
  </g>
  <g opacity=".78">
    <rect x="940" y="120" width="88" height="72" rx="18" fill="#075985"/>
    <text x="984" y="163" text-anchor="middle" fill="#e0f2fe" font-family="Arial" font-size="22" font-weight="700">React</text>
    <rect x="1110" y="105" width="88" height="72" rx="18" fill="#1d4ed8"/>
    <text x="1154" y="148" text-anchor="middle" fill="#dbeafe" font-family="Arial" font-size="26" font-weight="700">K8s</text>
    <rect x="1250" y="215" width="100" height="72" rx="18" fill="#0369a1"/>
    <text x="1300" y="258" text-anchor="middle" fill="#e0f2fe" font-family="Arial" font-size="24" font-weight="700">Docker</text>
  </g>
</svg>
