<svg xmlns="http://www.w3.org/2000/svg" width="1200" height="750" viewBox="0 0 1200 750">
  <defs>
    <linearGradient id="g" x1="0" y1="0" x2="1" y2="1">
      <stop offset="0" stop-color="#7c3aed"/>
      <stop offset="0.5" stop-color="#06b6d4"/>
      <stop offset="1" stop-color="#22c55e"/>
    </linearGradient>
    <filter id="b" x="-40%" y="-40%" width="180%" height="180%">
      <feGaussianBlur stdDeviation="32"/>
    </filter>
  </defs>
  <rect width="1200" height="750" rx="42" fill="#0b1020"/>
  <circle cx="290" cy="210" r="210" fill="#7c3aed" opacity="0.35" filter="url(#b)"/>
  <circle cx="900" cy="240" r="240" fill="#06b6d4" opacity="0.28" filter="url(#b)"/>
  <circle cx="650" cy="610" r="260" fill="#22c55e" opacity="0.20" filter="url(#b)"/>

  <g font-family="Inter, ui-sans-serif, system-ui" fill="#e5e7eb">
    <text x="70" y="140" font-size="44" font-weight="700">ERP System</text>
    <text x="70" y="195" font-size="22" fill="#9ca3af">.NET • React • TypeScript • Tailwind • JWT</text>
  </g>

  <g>
    <rect x="70" y="250" width="1060" height="420" rx="24" fill="#0f172a" stroke="#1f2937"/>
    <rect x="100" y="285" width="420" height="18" rx="9" fill="url(#g)" opacity="0.95"/>
    <rect x="100" y="325" width="520" height="12" rx="6" fill="#334155"/>
    <rect x="100" y="350" width="470" height="12" rx="6" fill="#334155"/>
    <rect x="100" y="375" width="430" height="12" rx="6" fill="#334155"/>

    <rect x="680" y="285" width="410" height="160" rx="18" fill="#0b1220" stroke="#1f2937"/>
    <rect x="700" y="310" width="220" height="12" rx="6" fill="#334155"/>
    <rect x="700" y="340" width="340" height="12" rx="6" fill="#334155"/>
    <rect x="700" y="370" width="280" height="12" rx="6" fill="#334155"/>

    <rect x="680" y="470" width="410" height="170" rx="18" fill="#0b1220" stroke="#1f2937"/>
    <rect x="700" y="495" width="260" height="12" rx="6" fill="#334155"/>
    <rect x="700" y="525" width="340" height="12" rx="6" fill="#334155"/>
    <rect x="700" y="555" width="300" height="12" rx="6" fill="#334155"/>
  </g>
</svg>

