<svg xmlns="http://www.w3.org/2000/svg" width="1200" height="750" viewBox="0 0 1200 750">
  <defs>
    <linearGradient id="g" x1="0" y1="0" x2="1" y2="1">
      <stop offset="0" stop-color="#06b6d4"/>
      <stop offset="1" stop-color="#7c3aed"/>
    </linearGradient>
    <filter id="b" x="-40%" y="-40%" width="180%" height="180%">
      <feGaussianBlur stdDeviation="28"/>
    </filter>
  </defs>
  <rect width="1200" height="750" rx="42" fill="#0b1020"/>
  <circle cx="330" cy="250" r="250" fill="#06b6d4" opacity="0.22" filter="url(#b)"/>
  <circle cx="900" cy="220" r="260" fill="#7c3aed" opacity="0.24" filter="url(#b)"/>

  <g font-family="Inter, ui-sans-serif, system-ui" fill="#e5e7eb">
    <text x="70" y="140" font-size="44" font-weight="700">Freelance Websites</text>
    <text x="70" y="195" font-size="22" fill="#9ca3af">Discovery → Design → Build → Deploy</text>
  </g>

  <g>
    <rect x="70" y="250" width="1060" height="420" rx="24" fill="#0f172a" stroke="#1f2937"/>
    <rect x="100" y="285" width="250" height="14" rx="7" fill="url(#g)"/>
    <rect x="100" y="315" width="340" height="10" rx="5" fill="#334155"/>

    <rect x="100" y="350" width="1030" height="260" rx="20" fill="#0b1220" stroke="#1f2937"/>
    <rect x="130" y="385" width="310" height="18" rx="9" fill="#111827"/>
    <rect x="130" y="420" width="420" height="12" rx="6" fill="#334155"/>
    <rect x="130" y="445" width="360" height="12" rx="6" fill="#334155"/>
    <rect x="130" y="470" width="390" height="12" rx="6" fill="#334155"/>

    <rect x="650" y="385" width="430" height="165" rx="16" fill="#0f172a" stroke="#1f2937"/>
    <rect x="675" y="415" width="180" height="10" rx="5" fill="#334155"/>
    <rect x="675" y="440" width="320" height="10" rx="5" fill="#334155"/>
    <rect x="675" y="465" width="260" height="10" rx="5" fill="#334155"/>
  </g>
</svg>

