<svg xmlns="http://www.w3.org/2000/svg" width="1200" height="750" viewBox="0 0 1200 750">
  <defs>
    <linearGradient id="g" x1="0" y1="0" x2="1" y2="1">
      <stop offset="0" stop-color="#22c55e"/>
      <stop offset="0.55" stop-color="#06b6d4"/>
      <stop offset="1" stop-color="#7c3aed"/>
    </linearGradient>
    <filter id="b" x="-40%" y="-40%" width="180%" height="180%">
      <feGaussianBlur stdDeviation="30"/>
    </filter>
  </defs>
  <rect width="1200" height="750" rx="42" fill="#0b1020"/>
  <circle cx="270" cy="220" r="230" fill="#22c55e" opacity="0.20" filter="url(#b)"/>
  <circle cx="950" cy="250" r="260" fill="#06b6d4" opacity="0.20" filter="url(#b)"/>
  <circle cx="650" cy="610" r="280" fill="#7c3aed" opacity="0.18" filter="url(#b)"/>

  <g font-family="Inter, ui-sans-serif, system-ui" fill="#e5e7eb">
    <text x="70" y="140" font-size="44" font-weight="700">Hackathon Prototypes</text>
    <text x="70" y="195" font-size="22" fill="#9ca3af">Fast MVPs • Polished UX • End‑to‑end demos</text>
  </g>

  <g>
    <rect x="70" y="250" width="1060" height="420" rx="24" fill="#0f172a" stroke="#1f2937"/>
    <rect x="100" y="285" width="360" height="16" rx="8" fill="url(#g)" opacity="0.95"/>
    <rect x="100" y="320" width="520" height="10" rx="5" fill="#334155"/>

    <rect x="100" y="360" width="640" height="290" rx="20" fill="#0b1220" stroke="#1f2937"/>
    <rect x="760" y="360" width="370" height="140" rx="20" fill="#0b1220" stroke="#1f2937"/>
    <rect x="760" y="510" width="370" height="140" rx="20" fill="#0b1220" stroke="#1f2937"/>
    <circle cx="1090" cy="405" r="26" fill="url(#g)"/>
    <rect x="130" y="400" width="420" height="12" rx="6" fill="#334155"/>
    <rect x="130" y="430" width="360" height="12" rx="6" fill="#334155"/>
    <rect x="130" y="460" width="390" height="12" rx="6" fill="#334155"/>
  </g>
</svg>

