<svg xmlns="http://www.w3.org/2000/svg" viewBox="0 0 960 540">
  <defs>
    <linearGradient id="bg" x1="0" x2="1" y1="0" y2="1">
      <stop offset="0%" stop-color="#0f766e"/>
      <stop offset="55%" stop-color="#14b8a6"/>
      <stop offset="100%" stop-color="#facc15"/>
    </linearGradient>
    <filter id="shadow" x="-20%" y="-20%" width="140%" height="140%">
      <feDropShadow dx="0" dy="22" stdDeviation="18" flood-color="#052e2b" flood-opacity=".32"/>
    </filter>
  </defs>
  <rect width="960" height="540" fill="url(#bg)"/>
  <circle cx="120" cy="88" r="150" fill="#ccfbf1" opacity=".26"/>
  <circle cx="808" cy="430" r="190" fill="#fef3c7" opacity=".24"/>
  <g transform="translate(48 54)">
    <text x="0" y="48" fill="#ffffff" font-family="Arial, sans-serif" font-size="50" font-weight="900">Yanioba</text>
    <text x="2" y="84" fill="#ecfeff" font-family="Arial, sans-serif" font-size="22" font-weight="700">Road safety reporting for Ghana</text>
    <rect x="0" y="118" width="235" height="14" rx="7" fill="#ccfbf1" opacity=".9"/>
    <rect x="0" y="148" width="185" height="14" rx="7" fill="#ccfbf1" opacity=".65"/>
    <rect x="0" y="190" width="126" height="42" rx="21" fill="#facc15"/>
    <text x="63" y="217" fill="#111827" text-anchor="middle" font-family="Arial, sans-serif" font-size="16" font-weight="800">Live alerts</text>
  </g>
  <g transform="translate(332 56)" filter="url(#shadow)">
    <rect width="164" height="346" rx="34" fill="#111827"/>
    <rect x="10" y="12" width="144" height="322" rx="25" fill="#ffffff"/>
    <rect x="55" y="24" width="54" height="8" rx="4" fill="#111827"/>
    <path d="M82 96c-25 31-53 69-53 106a53 53 0 0 0 106 0c0-37-28-75-53-106z" fill="#facc15" opacity=".22"/>
    <path d="M49 140c20 8 42 8 66 0 3 49-13 78-33 91-20-13-36-42-33-91z" fill="#facc15"/>
    <path d="M82 116l25 12v23c0 23-12 42-25 51-13-9-25-28-25-51v-23z" fill="#0f766e"/>
    <text x="82" y="258" fill="#111827" text-anchor="middle" font-family="Arial, sans-serif" font-size="22" font-weight="900">Safer</text>
    <text x="82" y="284" fill="#111827" text-anchor="middle" font-family="Arial, sans-serif" font-size="22" font-weight="900">communities</text>
    <rect x="30" y="306" width="104" height="18" rx="9" fill="#facc15"/>
  </g>
  <g transform="translate(514 34)" filter="url(#shadow)">
    <rect width="164" height="366" rx="34" fill="#111827"/>
    <rect x="10" y="12" width="144" height="342" rx="25" fill="#ffffff"/>
    <rect x="55" y="24" width="54" height="8" rx="4" fill="#111827"/>
    <circle cx="82" cy="112" r="46" fill="#fef3c7"/>
    <path d="M82 75c19 0 34 15 34 34v33H48v-33c0-19 15-34 34-34z" fill="#facc15"/>
    <circle cx="132" cy="152" r="22" fill="#ef4444"/>
    <text x="132" y="160" fill="#ffffff" text-anchor="middle" font-family="Arial, sans-serif" font-size="22" font-weight="900">3</text>
    <text x="82" y="230" fill="#111827" text-anchor="middle" font-family="Arial, sans-serif" font-size="22" font-weight="900">Real-time</text>
    <text x="82" y="256" fill="#111827" text-anchor="middle" font-family="Arial, sans-serif" font-size="22" font-weight="900">alerts</text>
    <rect x="30" y="302" width="104" height="18" rx="9" fill="#facc15"/>
  </g>
  <g transform="translate(696 56)" filter="url(#shadow)">
    <rect width="164" height="346" rx="34" fill="#111827"/>
    <rect x="10" y="12" width="144" height="322" rx="25" fill="#ffffff"/>
    <rect x="55" y="24" width="54" height="8" rx="4" fill="#111827"/>
    <circle cx="82" cy="102" r="44" fill="#fee2e2"/>
    <path d="M82 66c20 0 36 16 36 36 0 31-36 68-36 68s-36-37-36-68c0-20 16-36 36-36z" fill="#ef4444"/>
    <circle cx="82" cy="101" r="12" fill="#ffffff"/>
    <rect x="38" y="170" width="88" height="50" rx="10" fill="#facc15"/>
    <circle cx="62" cy="196" r="17" fill="#111827"/>
    <circle cx="103" cy="196" r="17" fill="#111827"/>
    <text x="82" y="260" fill="#111827" text-anchor="middle" font-family="Arial, sans-serif" font-size="22" font-weight="900">Report in</text>
    <text x="82" y="286" fill="#111827" text-anchor="middle" font-family="Arial, sans-serif" font-size="22" font-weight="900">seconds</text>
    <rect x="30" y="306" width="104" height="18" rx="9" fill="#facc15"/>
  </g>
  <g opacity=".9" fill="#ffffff">
    <circle cx="210" cy="370" r="5"/>
    <circle cx="232" cy="370" r="5" opacity=".6"/>
    <circle cx="254" cy="370" r="5" opacity=".35"/>
  </g>
</svg>
